<svg width="64" height="64" viewBox="0 0 64 64" fill="none" xmlns="http://www.w3.org/2000/svg">
<rect width="64" height="64" fill="#060609"/>
<path d="M14.7197 53.12V38.9672H17.0438C17.8352 38.3937 18.5597 37.584 19.2174 36.5381C19.875 35.481 20.4379 34.0247 20.9061 32.1692C21.3742 30.3024 21.7086 27.8621 21.9093 24.8482L22.879 10.24H45.5345V38.9672H49.2797V53.0863H42.3243V44.7869H21.6752V53.12H14.7197ZM25.4037 38.9672H38.579V16.2621H29.3998L28.8647 24.8482C28.7198 27.1311 28.4802 29.1553 28.1458 30.9209C27.8225 32.6865 27.4268 34.2328 26.9587 35.5598C26.5017 36.8755 25.9834 38.0113 25.4037 38.9672Z" fill="white" fill-opacity="0.9"/>
</svg>
