<svg width="106" height="19" viewBox="0 0 106 19" fill="none" xmlns="http://www.w3.org/2000/svg">
<path d="M0.475852 19.0085V13.0497H1.46307C1.79924 12.8082 2.10701 12.4673 2.38636 12.027C2.66572 11.5819 2.90483 10.9688 3.10369 10.1875C3.30256 9.40152 3.4446 8.37405 3.52983 7.10511L3.94176 0.954545H13.5653V13.0497H15.1562V18.9943H12.2017V15.5H3.4304V19.0085H0.475852ZM5.0142 13.0497H10.6108V3.49006H6.71165L6.48438 7.10511C6.42282 8.06629 6.32102 8.91856 6.17898 9.66193C6.04167 10.4053 5.87358 11.0563 5.67472 11.6151C5.48059 12.169 5.26042 12.6473 5.0142 13.0497ZM17.0259 0.954545H20.0941V10.1023H20.2148L26.5004 0.954545H29.1921V15.5H26.1168V6.34517H26.0103L19.6893 15.5H17.0259V0.954545ZM45.0994 8.22727C45.0994 9.81345 44.7988 11.1629 44.1974 12.2756C43.6009 13.3883 42.7865 14.2382 41.7543 14.8253C40.7268 15.4077 39.5715 15.6989 38.2884 15.6989C36.9957 15.6989 35.8357 15.4053 34.8082 14.8182C33.7808 14.2311 32.9688 13.3812 32.3722 12.2685C31.7756 11.1558 31.4773 9.80871 31.4773 8.22727C31.4773 6.6411 31.7756 5.29167 32.3722 4.17898C32.9688 3.06629 33.7808 2.21875 34.8082 1.63636C35.8357 1.04924 36.9957 0.755681 38.2884 0.755681C39.5715 0.755681 40.7268 1.04924 41.7543 1.63636C42.7865 2.21875 43.6009 3.06629 44.1974 4.17898C44.7988 5.29167 45.0994 6.6411 45.0994 8.22727ZM41.9815 8.22727C41.9815 7.19981 41.8277 6.33333 41.5199 5.62784C41.2169 4.92235 40.7884 4.38731 40.2344 4.02273C39.6804 3.65814 39.0317 3.47585 38.2884 3.47585C37.545 3.47585 36.8963 3.65814 36.3423 4.02273C35.7884 4.38731 35.3575 4.92235 35.0497 5.62784C34.7467 6.33333 34.5952 7.19981 34.5952 8.22727C34.5952 9.25473 34.7467 10.1212 35.0497 10.8267C35.3575 11.5322 35.7884 12.0672 36.3423 12.4318C36.8963 12.7964 37.545 12.9787 38.2884 12.9787C39.0317 12.9787 39.6804 12.7964 40.2344 12.4318C40.7884 12.0672 41.2169 11.5322 41.5199 10.8267C41.8277 10.1212 41.9815 9.25473 41.9815 8.22727ZM56.1772 15.5L51.5039 9.29972H50.4528V15.5H47.3775V0.954545H50.4528V6.7642H51.0707L55.9002 0.954545H59.7283L54.0536 7.7017L59.9911 15.5H56.1772ZM63.2493 15.6847C62.7805 15.6847 62.3781 15.5189 62.0419 15.1875C61.7105 14.8513 61.5447 14.4489 61.5447 13.9801C61.5447 13.5161 61.7105 13.1184 62.0419 12.7869C62.3781 12.4555 62.7805 12.2898 63.2493 12.2898C63.7038 12.2898 64.1016 12.4555 64.4425 12.7869C64.7834 13.1184 64.9538 13.5161 64.9538 13.9801C64.9538 14.2926 64.8733 14.5791 64.7124 14.8395C64.5561 15.0952 64.3501 15.3011 64.0945 15.4574C63.8388 15.6089 63.5571 15.6847 63.2493 15.6847ZM66.2571 3.49006V0.954545H78.2031V3.49006H73.75V15.5H70.7102V3.49006H66.2571ZM80.1705 15.5V0.954545H89.9716V3.49006H83.2457V6.95597H89.4673V9.49148H83.2457V12.9645H90V15.5H80.1705ZM95.3001 0.954545L98.2333 5.91193H98.3469L101.294 0.954545H104.767L100.328 8.22727L104.867 15.5H101.33L98.3469 10.5355H98.2333L95.2504 15.5H91.7276L96.2802 8.22727L91.8129 0.954545H95.3001Z" fill="white" fill-opacity="0.9"/>
</svg>
