<svg width="458" height="80" viewBox="0 0 458 80" fill="none" xmlns="http://www.w3.org/2000/svg">
<rect width="80" height="80" rx="20" fill="url(#paint0_linear_580_33063)"/>
<path d="M30 20H27.2222L26.6667 20C22.9848 20 20 22.9848 20 26.6667V26.6667V36.6667" stroke="white" stroke-opacity="0.9" stroke-width="6.66667"/>
<path d="M40 20H51.6667H53.3333C57.0152 20 60 22.9848 60 26.6667V26.6667V30" stroke="white" stroke-opacity="0.9" stroke-width="6.66667"/>
<path d="M20 46.6667V53.3333C20 57.0152 22.9848 60 26.6667 60V60H36.6667" stroke="white" stroke-opacity="0.9" stroke-width="6.66667"/>
<path d="M46.6667 60H51.6668C56.2691 60 60.0001 56.269 60.0001 51.6667V51.6667V40" stroke="white" stroke-opacity="0.9" stroke-width="6.66667"/>
<path d="M105.142 65.4205V51.1193H107.511C108.318 50.5398 109.057 49.7216 109.727 48.6648C110.398 47.5966 110.972 46.125 111.449 44.25C111.926 42.3636 112.267 39.8977 112.472 36.8523L113.46 22.0909H136.557V51.1193H140.375V65.3864H133.284V57H112.233V65.4205H105.142ZM116.034 51.1193H129.466V28.1761H120.108L119.562 36.8523C119.415 39.1591 119.17 41.2045 118.83 42.9886C118.5 44.7727 118.097 46.3352 117.619 47.6761C117.153 49.0057 116.625 50.1534 116.034 51.1193ZM144.862 22.0909H152.226V44.0455H152.516L167.601 22.0909H174.061V57H166.68V35.0284H166.425L151.254 57H144.862V22.0909ZM212.239 39.5455C212.239 43.3523 211.517 46.5909 210.074 49.2614C208.642 51.9318 206.688 53.9716 204.21 55.3807C201.744 56.7784 198.972 57.4773 195.892 57.4773C192.79 57.4773 190.006 56.7727 187.54 55.3636C185.074 53.9545 183.125 51.9148 181.693 49.2443C180.261 46.5739 179.545 43.3409 179.545 39.5455C179.545 35.7386 180.261 32.5 181.693 29.8295C183.125 27.1591 185.074 25.125 187.54 23.7273C190.006 22.3182 192.79 21.6136 195.892 21.6136C198.972 21.6136 201.744 22.3182 204.21 23.7273C206.688 25.125 208.642 27.1591 210.074 29.8295C211.517 32.5 212.239 35.7386 212.239 39.5455ZM204.756 39.5455C204.756 37.0795 204.386 35 203.648 33.3068C202.92 31.6136 201.892 30.3295 200.562 29.4545C199.233 28.5795 197.676 28.142 195.892 28.142C194.108 28.142 192.551 28.5795 191.222 29.4545C189.892 30.3295 188.858 31.6136 188.119 33.3068C187.392 35 187.028 37.0795 187.028 39.5455C187.028 42.0114 187.392 44.0909 188.119 45.7841C188.858 47.4773 189.892 48.7614 191.222 49.6364C192.551 50.5114 194.108 50.9489 195.892 50.9489C197.676 50.9489 199.233 50.5114 200.562 49.6364C201.892 48.7614 202.92 47.4773 203.648 45.7841C204.386 44.0909 204.756 42.0114 204.756 39.5455ZM238.825 57L227.609 42.1193H225.087V57H217.706V22.0909H225.087V36.0341H226.57L238.161 22.0909H247.348L233.729 38.2841L247.979 57H238.825ZM255.798 57.4432C254.673 57.4432 253.707 57.0455 252.901 56.25C252.105 55.4432 251.707 54.4773 251.707 53.3523C251.707 52.2386 252.105 51.2841 252.901 50.4886C253.707 49.6932 254.673 49.2955 255.798 49.2955C256.889 49.2955 257.844 49.6932 258.662 50.4886C259.48 51.2841 259.889 52.2386 259.889 53.3523C259.889 54.1023 259.696 54.7898 259.31 55.4148C258.935 56.0284 258.44 56.5227 257.827 56.8977C257.213 57.2614 256.537 57.4432 255.798 57.4432ZM278.686 57.4773C276.141 57.4773 273.874 57.0398 271.885 56.1648C269.908 55.2784 268.345 54.0625 267.197 52.517C266.061 50.9602 265.476 49.1648 265.442 47.1307H272.874C272.919 47.983 273.197 48.733 273.709 49.3807C274.232 50.017 274.925 50.5114 275.788 50.8636C276.652 51.2159 277.624 51.392 278.703 51.392C279.828 51.392 280.822 51.1932 281.686 50.7955C282.55 50.3977 283.226 49.8466 283.714 49.142C284.203 48.4375 284.447 47.625 284.447 46.7045C284.447 45.7727 284.186 44.9489 283.663 44.233C283.152 43.5057 282.413 42.9375 281.447 42.5284C280.493 42.1193 279.357 41.9148 278.038 41.9148H274.783V36.4943H278.038C279.152 36.4943 280.135 36.3011 280.987 35.9148C281.851 35.5284 282.521 34.9943 282.999 34.3125C283.476 33.6193 283.714 32.8125 283.714 31.892C283.714 31.017 283.504 30.25 283.084 29.5909C282.675 28.9205 282.095 28.3977 281.345 28.0227C280.607 27.6477 279.743 27.4602 278.754 27.4602C277.754 27.4602 276.839 27.642 276.01 28.0057C275.18 28.358 274.516 28.8636 274.016 29.5227C273.516 30.1818 273.249 30.9545 273.214 31.8409H266.141C266.175 29.8295 266.749 28.0568 267.862 26.5227C268.976 24.9886 270.476 23.7898 272.362 22.9261C274.26 22.0511 276.402 21.6136 278.788 21.6136C281.197 21.6136 283.305 22.0511 285.112 22.9261C286.919 23.8011 288.322 24.983 289.322 26.4716C290.334 27.9489 290.834 29.608 290.822 31.4489C290.834 33.4034 290.226 35.0341 288.999 36.3409C287.783 37.6477 286.197 38.4773 284.243 38.8295V39.1023C286.811 39.4318 288.766 40.3239 290.107 41.7784C291.459 43.2216 292.129 45.0284 292.118 47.1989C292.129 49.1875 291.555 50.9545 290.396 52.5C289.249 54.0455 287.663 55.2614 285.641 56.1477C283.618 57.0341 281.3 57.4773 278.686 57.4773ZM315.713 41.0114V46.7216H302.043V41.0114H315.713ZM304.429 30.8182V57H297.491V30.8182H304.429ZM320.264 30.8182V57H313.378V30.8182H320.264ZM333.364 57.4943C331.693 57.4943 330.205 57.2045 328.898 56.625C327.591 56.0341 326.557 55.1648 325.795 54.017C325.045 52.858 324.67 51.4148 324.67 49.6875C324.67 48.233 324.938 47.0114 325.472 46.0227C326.006 45.0341 326.733 44.2386 327.653 43.6364C328.574 43.0341 329.619 42.5795 330.79 42.2727C331.972 41.9659 333.21 41.75 334.506 41.625C336.028 41.4659 337.256 41.3182 338.188 41.1818C339.119 41.0341 339.795 40.8182 340.216 40.5341C340.636 40.25 340.847 39.8295 340.847 39.2727V39.1705C340.847 38.0909 340.506 37.2557 339.824 36.6648C339.153 36.0739 338.199 35.7784 336.96 35.7784C335.653 35.7784 334.614 36.0682 333.841 36.6477C333.068 37.2159 332.557 37.9318 332.307 38.7955L325.591 38.25C325.932 36.6591 326.602 35.2841 327.602 34.125C328.602 32.9545 329.892 32.0568 331.472 31.4318C333.063 30.7955 334.903 30.4773 336.994 30.4773C338.449 30.4773 339.841 30.6477 341.17 30.9886C342.511 31.3295 343.699 31.858 344.733 32.5739C345.778 33.2898 346.602 34.2102 347.205 35.3352C347.807 36.4489 348.108 37.7841 348.108 39.3409V57H341.222V53.3693H341.017C340.597 54.1875 340.034 54.9091 339.33 55.5341C338.625 56.1477 337.778 56.6307 336.79 56.983C335.801 57.3239 334.659 57.4943 333.364 57.4943ZM335.443 52.483C336.511 52.483 337.455 52.2727 338.273 51.8523C339.091 51.4205 339.733 50.8409 340.199 50.1136C340.665 49.3864 340.898 48.5625 340.898 47.642V44.8636C340.67 45.0114 340.358 45.1477 339.96 45.2727C339.574 45.3864 339.136 45.4943 338.648 45.5966C338.159 45.6875 337.67 45.7727 337.182 45.8523C336.693 45.9205 336.25 45.983 335.852 46.0398C335 46.1648 334.256 46.3636 333.619 46.6364C332.983 46.9091 332.489 47.2784 332.136 47.7443C331.784 48.1989 331.608 48.767 331.608 49.4489C331.608 50.4375 331.966 51.1932 332.682 51.7159C333.409 52.2273 334.33 52.483 335.443 52.483ZM371.963 41.0114V46.7216H358.293V41.0114H371.963ZM360.679 30.8182V57H353.741V30.8182H360.679ZM376.514 30.8182V57H369.628V30.8182H376.514ZM389.085 47.4205L398.511 30.8182H405.67V57H398.75V40.3466L389.358 57H382.148V30.8182H389.085V47.4205ZM426.832 57V36.5114H421.923C420.594 36.5114 419.582 36.8182 418.889 37.4318C418.196 38.0455 417.855 38.7727 417.866 39.6136C417.855 40.4659 418.185 41.1875 418.855 41.7784C419.537 42.358 420.537 42.6477 421.855 42.6477H429.253V47.5568H421.855C419.616 47.5568 417.679 47.2159 416.043 46.5341C414.406 45.8523 413.145 44.9034 412.259 43.6875C411.372 42.4602 410.935 41.0341 410.946 39.4091C410.935 37.7045 411.372 36.2102 412.259 34.9261C413.145 33.6307 414.412 32.625 416.06 31.9091C417.719 31.1818 419.673 30.8182 421.923 30.8182H433.599V57H426.832ZM410.196 57L417.474 43.3636H424.412L417.151 57H410.196Z" fill="#FAFAFA"/>
<defs>
<linearGradient id="paint0_linear_580_33063" x1="-0.00124584" y1="79.9995" x2="79.999" y2="-0.000974039" gradientUnits="userSpaceOnUse">
<stop stop-color="#393F95"/>
<stop offset="1" stop-color="#444CE7"/>
</linearGradient>
</defs>
</svg>
