<svg width="26" height="26" viewBox="0 0 26 26" fill="none" xmlns="http://www.w3.org/2000/svg">
<g clip-path="url(#clip0_445_5524)">
<g clip-path="url(#clip1_445_5524)">
<path d="M13.0001 9.75001L4.4026 15.3384C3.65743 15.8227 3.28485 16.0649 3.1558 16.372C3.04303 16.6404 3.04303 16.9429 3.1558 17.2114M13.0001 9.75001L21.5975 15.3384C22.3427 15.8227 22.7153 16.0649 22.8443 16.372C22.9571 16.6404 22.9571 16.9429 22.8443 17.2114M13.0001 9.75001V2.70835M13.0001 16.25L4.4026 10.6616C3.65743 10.1773 3.28485 9.93511 3.1558 9.62799C3.04303 9.35959 3.04303 9.0571 3.1558 8.78871M13.0001 16.25L21.5975 10.6616C22.3427 10.1773 22.7153 9.93511 22.8443 9.62799C22.9571 9.35959 22.9571 9.0571 22.8443 8.78871M13.0001 16.25V23.2917M23.0447 17.3043L13.9447 23.2193C13.6028 23.4416 13.4318 23.5527 13.2476 23.596C13.0848 23.6341 12.9154 23.6341 12.7525 23.596C12.5684 23.5527 12.3973 23.4416 12.0554 23.2193L2.95544 17.3043C2.66726 17.117 2.52318 17.0234 2.41879 16.8984C2.32638 16.7879 2.25696 16.6599 2.2146 16.5221C2.16675 16.3666 2.16675 16.1948 2.16675 15.851V10.149C2.16675 9.80531 2.16675 9.63346 2.2146 9.47785C2.25696 9.34009 2.32638 9.21218 2.41879 9.10159C2.52318 8.97666 2.66726 8.88301 2.95544 8.6957L12.0554 2.7807C12.3973 2.55846 12.5684 2.44733 12.7525 2.40409C12.9154 2.36587 13.0848 2.36587 13.2476 2.40409C13.4318 2.44733 13.6028 2.55846 13.9447 2.7807L23.0447 8.6957C23.3329 8.88301 23.477 8.97666 23.5814 9.10159C23.6738 9.21218 23.7432 9.34009 23.7855 9.47785C23.8334 9.63346 23.8334 9.80531 23.8334 10.149V15.851C23.8334 16.1948 23.8334 16.3666 23.7855 16.5221C23.7432 16.6599 23.6738 16.7879 23.5814 16.8984C23.477 17.0234 23.3329 17.117 23.0447 17.3043Z" stroke="white" stroke-width="2.16667" stroke-linecap="round" stroke-linejoin="round"/>
</g>
</g>
<defs>
<clipPath id="clip0_445_5524">
<rect width="26" height="26" fill="white"/>
</clipPath>
<clipPath id="clip1_445_5524">
<rect width="26" height="26" fill="white"/>
</clipPath>
</defs>
</svg>
