<svg width="26" height="26" viewBox="0 0 26 26" fill="none" xmlns="http://www.w3.org/2000/svg">
<g clip-path="url(#clip0_407_26371)">
<path d="M13 9.75001L4.40254 15.3384C3.65736 15.8227 3.28478 16.0649 3.15574 16.372C3.04297 16.6404 3.04297 16.9429 3.15574 17.2114M13 9.75001L21.5975 15.3384C22.3427 15.8227 22.7152 16.0649 22.8443 16.372C22.957 16.6404 22.957 16.9429 22.8443 17.2114M13 9.75001V2.70835M13 16.25L4.40254 10.6616C3.65736 10.1773 3.28478 9.93511 3.15574 9.62799C3.04297 9.35959 3.04297 9.0571 3.15574 8.78871M13 16.25L21.5975 10.6616C22.3427 10.1773 22.7152 9.93511 22.8443 9.62799C22.957 9.35959 22.957 9.0571 22.8443 8.78871M13 16.25V23.2917M23.0447 17.3043L13.9447 23.2193C13.6028 23.4416 13.4317 23.5527 13.2476 23.596C13.0847 23.6341 12.9153 23.6341 12.7525 23.596C12.5683 23.5527 12.3973 23.4416 12.0554 23.2193L2.95538 17.3043C2.6672 17.117 2.52311 17.0234 2.41872 16.8984C2.32632 16.7879 2.2569 16.6599 2.21454 16.5221C2.16669 16.3666 2.16669 16.1948 2.16669 15.851V10.149C2.16669 9.80531 2.16669 9.63346 2.21454 9.47785C2.2569 9.34009 2.32632 9.21218 2.41872 9.10159C2.52311 8.97666 2.6672 8.88301 2.95538 8.6957L12.0554 2.7807C12.3973 2.55846 12.5683 2.44733 12.7525 2.40409C12.9153 2.36587 13.0847 2.36587 13.2476 2.40409C13.4317 2.44733 13.6028 2.55846 13.9447 2.7807L23.0447 8.6957C23.3329 8.88301 23.4769 8.97666 23.5814 9.10159C23.6738 9.21218 23.7431 9.34009 23.7855 9.47785C23.8334 9.63346 23.8334 9.80531 23.8334 10.149V15.851C23.8334 16.1948 23.8334 16.3666 23.7855 16.5221C23.7431 16.6599 23.6738 16.7879 23.5814 16.8984C23.4769 17.0234 23.3329 17.117 23.0447 17.3043Z" stroke="white" stroke-width="2.16667" stroke-linecap="round" stroke-linejoin="round"/>
</g>
<defs>
<clipPath id="clip0_407_26371">
<rect width="26" height="26" fill="white"/>
</clipPath>
</defs>
</svg>
