<svg width="26" height="26" viewBox="0 0 26 26" fill="none" xmlns="http://www.w3.org/2000/svg">
<path d="M7.58334 10.8333V8.66667C7.58334 5.67513 10.0085 3.25 13 3.25C15.2212 3.25 17.1301 4.58694 17.966 6.5M13 15.7083V17.875M9.53334 22.75H16.4667C18.2869 22.75 19.1969 22.75 19.8922 22.3958C20.5037 22.0842 21.0009 21.587 21.3124 20.9755C21.6667 20.2802 21.6667 19.3702 21.6667 17.55V16.0333C21.6667 14.2131 21.6667 13.3031 21.3124 12.6078C21.0009 11.9963 20.5037 11.4991 19.8922 11.1876C19.1969 10.8333 18.2869 10.8333 16.4667 10.8333H9.53334C7.71316 10.8333 6.80308 10.8333 6.10787 11.1876C5.49634 11.4991 4.99915 11.9963 4.68756 12.6078C4.33334 13.3031 4.33334 14.2131 4.33334 16.0333V17.55C4.33334 19.3702 4.33334 20.2802 4.68756 20.9755C4.99915 21.587 5.49634 22.0842 6.10787 22.3958C6.80308 22.75 7.71316 22.75 9.53334 22.75Z" stroke="white" stroke-width="2.16667" stroke-linecap="round" stroke-linejoin="round"/>
</svg>
